<svg xmlns="http://www.w3.org/2000/svg" xmlns:xlink="http://www.w3.org/1999/xlink" width="500" zoomAndPan="magnify" viewBox="0 0 375 374.999991" height="500" preserveAspectRatio="xMidYMid meet" version="1.0"><defs><g/><clipPath id="9ab1a75c4e"><path d="M 113.128906 68.113281 L 261.960938 68.113281 L 261.960938 237.472656 L 113.128906 237.472656 Z M 113.128906 68.113281 " clip-rule="nonzero"/></clipPath></defs><g fill="#006494" fill-opacity="1"><g transform="translate(42.786831, 297.650559)"><g><path d="M 29.773438 -7.007812 L 22.769531 -7.007812 L 22.769531 -35.03125 L 15.761719 -35.03125 L 15.761719 -7.007812 L 8.757812 -7.007812 L 8.757812 -35.03125 L 1.75 -35.03125 L 1.75 -7.007812 C 1.75 -3.152344 4.902344 0 8.757812 0 L 29.773438 0 C 33.628906 0 36.78125 -3.152344 36.78125 -7.007812 L 36.78125 -35.03125 L 29.773438 -35.03125 Z M 29.773438 -7.007812 "/></g></g></g><g fill="#006494" fill-opacity="1"><g transform="translate(84.600549, 297.650559)"><g><path d="M 36.78125 -35.03125 L 8.757812 -35.03125 C 4.902344 -35.03125 1.75 -31.878906 1.75 -28.023438 L 1.75 -7.007812 C 1.75 -3.152344 4.902344 0 8.757812 0 L 36.78125 0 L 36.78125 -7.007812 L 8.757812 -7.007812 L 8.757812 -14.011719 L 36.78125 -14.011719 L 36.78125 -21.019531 L 8.757812 -21.019531 L 8.757812 -28.023438 L 36.78125 -28.023438 Z M 36.78125 -35.03125 "/></g></g></g><g fill="#006494" fill-opacity="1"><g transform="translate(126.414267, 297.650559)"><g><path d="M 36.78125 -28.023438 C 36.78125 -31.832031 33.671875 -35.03125 29.773438 -35.03125 L 1.75 -35.03125 L 1.75 0 L 29.773438 0 C 33.671875 0 36.78125 -3.195312 36.78125 -7.007812 L 36.78125 -14.011719 C 36.78125 -15.9375 35.203125 -17.515625 33.277344 -17.515625 C 35.203125 -17.515625 36.78125 -19.089844 36.78125 -21.019531 Z M 29.773438 -28.023438 L 29.773438 -21.019531 L 8.757812 -21.019531 L 8.757812 -28.023438 Z M 8.757812 -7.007812 L 8.757812 -14.011719 L 29.773438 -14.011719 L 29.773438 -7.007812 Z M 8.757812 -7.007812 "/></g></g></g><g fill="#006494" fill-opacity="1"><g transform="translate(168.227989, 297.650559)"><g><path d="M 29.773438 -7.007812 L 22.769531 -7.007812 L 22.769531 -35.03125 L 15.761719 -35.03125 L 15.761719 -7.007812 L 8.757812 -7.007812 L 8.757812 -35.03125 L 1.75 -35.03125 L 1.75 -7.007812 C 1.75 -3.152344 4.902344 0 8.757812 0 L 29.773438 0 C 33.628906 0 36.78125 -3.152344 36.78125 -7.007812 L 36.78125 -35.03125 L 29.773438 -35.03125 Z M 29.773438 -7.007812 "/></g></g></g><g fill="#006494" fill-opacity="1"><g transform="translate(210.041703, 297.650559)"><g><path d="M 8.757812 -35.03125 C 4.902344 -35.03125 1.75 -31.878906 1.75 -28.023438 L 1.75 0 L 8.757812 0 L 8.757812 -14.011719 L 29.773438 -14.011719 L 29.773438 0 L 36.78125 0 L 36.78125 -28.023438 C 36.78125 -31.878906 33.628906 -35.03125 29.773438 -35.03125 Z M 8.757812 -28.023438 L 29.773438 -28.023438 L 29.773438 -21.019531 L 8.757812 -21.019531 Z M 8.757812 -28.023438 "/></g></g></g><g fill="#006494" fill-opacity="1"><g transform="translate(251.855416, 297.650559)"><g><path d="M 36.78125 -28.023438 C 36.78125 -31.878906 33.628906 -35.03125 29.773438 -35.03125 L 1.75 -35.03125 L 1.75 0 L 8.757812 0 L 8.757812 -14.011719 L 12.875 -14.011719 L 25.835938 -1.050781 C 26.535156 -0.351562 27.410156 0 28.375 0 L 36.78125 0 L 36.78125 -7.007812 L 29.773438 -7.007812 L 22.769531 -14.011719 L 29.773438 -14.011719 C 33.628906 -14.011719 36.78125 -17.164062 36.78125 -21.019531 Z M 29.773438 -28.023438 L 29.773438 -21.019531 L 8.757812 -21.019531 L 8.757812 -28.023438 Z M 29.773438 -28.023438 "/></g></g></g><g fill="#006494" fill-opacity="1"><g transform="translate(293.66913, 297.650559)"><g><path d="M 29.773438 -35.03125 L 1.75 -35.03125 L 1.75 0 L 8.757812 0 L 8.757812 -14.011719 L 29.773438 -14.011719 C 33.628906 -14.011719 36.78125 -17.164062 36.78125 -21.019531 L 36.78125 -28.023438 C 36.78125 -31.878906 33.628906 -35.03125 29.773438 -35.03125 Z M 8.757812 -21.019531 L 8.757812 -28.023438 L 29.773438 -28.023438 L 29.773438 -21.019531 Z M 8.757812 -21.019531 "/></g></g></g><path fill="#003554" d="M 235.707031 125.109375 C 235.40625 124.554688 235.007812 124.007812 234.183594 123.59375 L 222.40625 116.789062 C 222.246094 116.695312 222.070312 116.625 221.886719 116.578125 C 221.828125 116.566406 221.769531 116.566406 221.703125 116.554688 C 221.582031 116.535156 221.460938 116.511719 221.339844 116.511719 L 221.316406 116.511719 L 221.316406 116.519531 C 220.96875 116.523438 220.625 116.617188 220.320312 116.789062 L 193.824219 132.09375 L 193.800781 132.046875 L 191.660156 133.285156 C 189.082031 134.769531 185.910156 134.769531 183.328125 133.285156 L 171.746094 126.597656 C 171.105469 126.222656 170.707031 125.535156 170.707031 124.792969 C 170.707031 124.046875 171.105469 123.359375 171.746094 122.988281 L 183.328125 116.304688 C 185.910156 114.816406 189.082031 114.816406 191.660156 116.304688 L 194.449219 117.914062 C 195.09375 118.285156 195.886719 118.285156 196.53125 117.914062 L 207.320312 111.6875 C 207.964844 111.3125 208.359375 110.628906 208.359375 109.882812 C 208.359375 109.140625 207.964844 108.453125 207.320312 108.078125 L 191.660156 99.039062 C 189.082031 97.550781 185.910156 97.550781 183.332031 99.039062 L 144.972656 121.183594 C 142.195312 122.789062 142.195312 126.792969 144.972656 128.398438 L 183.332031 150.542969 C 185.910156 152.03125 189.082031 152.03125 191.660156 150.542969 L 221.316406 133.421875 L 221.316406 172.425781 L 211.789062 177.945312 L 191.660156 189.597656 C 191.023438 189.964844 190.34375 190.246094 189.632812 190.4375 C 187.507812 191 185.242188 190.699219 183.332031 189.597656 L 155.757812 173.679688 C 154.46875 172.9375 153.671875 171.558594 153.671875 170.070312 L 153.671875 147.335938 C 153.671875 146.59375 153.273438 145.902344 152.632812 145.535156 L 141.847656 139.300781 C 141.203125 138.929688 140.410156 138.929688 139.761719 139.300781 C 139.121094 139.675781 138.722656 140.367188 138.722656 141.109375 L 138.722656 178.707031 C 138.722656 180.191406 139.515625 181.5625 140.804688 182.3125 L 183.332031 206.867188 C 184.578125 207.585938 185.996094 207.964844 187.4375 207.976562 L 187.464844 207.976562 C 187.671875 207.976562 187.875 207.953125 188.078125 207.941406 C 188.234375 207.929688 188.390625 207.929688 188.546875 207.914062 C 188.761719 207.882812 188.976562 207.832031 189.1875 207.789062 C 189.332031 207.753906 189.476562 207.738281 189.617188 207.703125 C 189.847656 207.644531 190.070312 207.558594 190.289062 207.476562 C 190.417969 207.429688 190.539062 207.402344 190.65625 207.355469 C 191 207.214844 191.335938 207.050781 191.65625 206.867188 L 228.34375 185.683594 L 234.160156 182.382812 C 235.460938 181.644531 236.269531 180.261719 236.269531 178.765625 L 236.269531 127.195312 C 236.269531 126.449219 236.066406 125.734375 235.707031 125.109375 " fill-opacity="1" fill-rule="nonzero"/><g clip-path="url(#9ab1a75c4e)"><path fill="#006494" d="M 191.558594 86.582031 C 190.320312 85.871094 188.925781 85.488281 187.496094 85.476562 C 186.074219 85.488281 184.671875 85.871094 183.433594 86.582031 L 132.191406 116.167969 C 129.621094 117.652344 128.039062 120.394531 128.039062 123.363281 L 128.039062 182.535156 C 128.039062 185.503906 129.621094 188.246094 132.191406 189.730469 L 183.433594 219.3125 C 184.691406 220.039062 186.105469 220.421875 187.554688 220.429688 C 189 220.421875 190.425781 220.039062 191.679688 219.320312 L 242.695312 189.863281 C 245.265625 188.382812 246.851562 185.640625 246.851562 182.667969 L 246.851562 165.570312 C 246.84375 164.828125 247.246094 164.140625 247.882812 163.769531 L 258.75 157.5 C 259.386719 157.128906 260.183594 157.128906 260.824219 157.5 C 261.46875 157.871094 261.863281 158.558594 261.863281 159.300781 L 261.863281 191.148438 C 261.855469 192.507812 261.519531 193.84375 260.882812 195.039062 C 260.71875 195.824219 259.863281 196.746094 258.65625 197.695312 C 258.632812 197.71875 258.597656 197.742188 258.570312 197.765625 C 255.5 200.152344 250.421875 202.617188 249.523438 203.136719 L 191.679688 236.535156 C 190.382812 237.277344 188.90625 237.660156 187.414062 237.644531 L 187.351562 237.644531 L 187.351562 237.636719 C 185.972656 237.601562 184.625 237.21875 183.433594 236.535156 L 117.28125 198.339844 C 114.710938 196.859375 113.128906 194.117188 113.128906 191.148438 L 113.128906 114.757812 C 113.128906 113.421875 113.296875 112.066406 113.882812 110.914062 C 113.964844 110.617188 114.765625 109.148438 116.417969 107.941406 C 117.039062 107.523438 118.140625 106.960938 119.171875 106.363281 L 183.25 69.367188 C 184.539062 68.625 186.007812 68.242188 187.496094 68.261719 C 188.988281 68.242188 190.453125 68.625 191.742188 69.367188 L 250.871094 103.503906 C 251.003906 103.585938 251.109375 103.683594 251.226562 103.777344 L 251.976562 104.207031 C 253.984375 105.269531 257.132812 106.894531 258.84375 108.191406 L 258.980469 108.296875 C 259.003906 108.316406 259.027344 108.332031 259.050781 108.347656 C 259.109375 108.398438 259.152344 108.449219 259.207031 108.5 C 259.835938 109.023438 260.371094 109.640625 260.78125 110.328125 C 260.792969 110.339844 260.800781 110.351562 260.8125 110.363281 L 260.804688 110.363281 C 261.496094 111.515625 261.863281 112.835938 261.863281 114.179688 L 261.863281 142.152344 C 261.863281 142.894531 261.46875 143.582031 260.824219 143.953125 L 249.960938 150.226562 C 249.320312 150.59375 248.523438 150.59375 247.886719 150.226562 C 247.238281 149.855469 246.84375 149.167969 246.84375 148.425781 L 246.84375 123.203125 C 246.84375 120.230469 245.257812 117.484375 242.683594 116.003906 L 191.558594 86.582031 L 191.558594 86.585938 Z M 191.558594 86.582031 " fill-opacity="1" fill-rule="nonzero"/></g></svg>