<svg xmlns="http://www.w3.org/2000/svg" xmlns:xlink="http://www.w3.org/1999/xlink" width="500" zoomAndPan="magnify" viewBox="0 0 375 374.999991" height="500" preserveAspectRatio="xMidYMid meet" version="1.0"><defs><clipPath id="5230378ab6"><path d="M 27.210938 4.597656 L 347.460938 4.597656 L 347.460938 370 L 27.210938 370 Z M 27.210938 4.597656 " clip-rule="nonzero"/></clipPath></defs><path fill="#003554" d="M 291.402344 127.457031 C 290.753906 126.261719 289.902344 125.082031 288.121094 124.183594 L 262.738281 109.523438 C 262.390625 109.324219 262.015625 109.171875 261.613281 109.070312 C 261.488281 109.039062 261.363281 109.039062 261.226562 109.019531 C 260.960938 108.972656 260.699219 108.925781 260.4375 108.929688 L 260.386719 108.925781 L 260.386719 108.9375 C 259.632812 108.949219 258.894531 109.152344 258.246094 109.527344 L 201.132812 142.507812 L 201.082031 142.40625 L 196.472656 145.074219 C 190.914062 148.28125 184.078125 148.28125 178.515625 145.074219 L 153.546875 130.660156 C 152.164062 129.859375 151.308594 128.375 151.308594 126.769531 C 151.308594 125.167969 152.164062 123.683594 153.546875 122.882812 L 178.515625 108.476562 C 184.078125 105.269531 190.914062 105.269531 196.472656 108.476562 L 202.484375 111.949219 C 203.875 112.746094 205.578125 112.746094 206.964844 111.949219 L 230.21875 98.523438 C 231.609375 97.722656 232.460938 96.242188 232.460938 94.636719 C 232.460938 93.035156 231.609375 91.554688 230.21875 90.75 L 196.472656 71.261719 C 190.914062 68.058594 184.078125 68.058594 178.515625 71.261719 L 95.84375 118.996094 C 89.859375 122.453125 89.859375 131.085938 95.84375 134.542969 L 178.515625 182.277344 C 184.078125 185.484375 190.914062 185.484375 196.472656 182.277344 L 260.386719 145.375 L 260.386719 229.433594 L 239.851562 241.332031 L 196.472656 266.449219 C 195.097656 267.238281 193.628906 267.839844 192.101562 268.253906 C 187.519531 269.46875 182.636719 268.816406 178.515625 266.449219 L 119.085938 232.140625 C 116.308594 230.539062 114.597656 227.570312 114.597656 224.363281 L 114.597656 175.363281 C 114.597656 173.761719 113.738281 172.273438 112.355469 171.484375 L 89.109375 158.046875 C 87.71875 157.246094 86.007812 157.246094 84.617188 158.046875 C 83.230469 158.847656 82.375 160.339844 82.375 161.941406 L 82.375 242.972656 C 82.375 246.175781 84.085938 249.132812 86.863281 250.746094 L 178.515625 303.667969 C 181.207031 305.21875 184.265625 306.03125 187.371094 306.058594 L 187.433594 306.058594 C 187.871094 306.058594 188.308594 306.007812 188.746094 305.984375 C 189.085938 305.957031 189.421875 305.957031 189.761719 305.921875 C 190.226562 305.859375 190.6875 305.746094 191.140625 305.65625 C 191.453125 305.582031 191.765625 305.542969 192.066406 305.46875 C 192.566406 305.34375 193.042969 305.15625 193.519531 304.980469 C 193.792969 304.882812 194.054688 304.820312 194.308594 304.71875 C 195.046875 304.417969 195.773438 304.066406 196.460938 303.667969 L 275.539062 258.011719 L 288.074219 250.898438 C 290.878906 249.308594 292.617188 246.328125 292.617188 243.097656 L 292.617188 131.949219 C 292.617188 130.347656 292.179688 128.800781 291.402344 127.457031 " fill-opacity="1" fill-rule="nonzero"/><g clip-path="url(#5230378ab6)"><path fill="#006494" d="M 196.246094 44.417969 C 193.582031 42.882812 190.574219 42.0625 187.496094 42.03125 C 184.425781 42.0625 181.410156 42.882812 178.742188 44.417969 L 68.300781 108.183594 C 62.761719 111.382812 59.351562 117.292969 59.347656 123.691406 L 59.347656 251.226562 C 59.347656 257.625 62.757812 263.535156 68.300781 266.730469 L 178.742188 330.492188 C 181.445312 332.058594 184.503906 332.882812 187.621094 332.898438 C 190.738281 332.882812 193.804688 332.058594 196.511719 330.503906 L 306.46875 267.019531 C 312.003906 263.824219 315.421875 257.914062 315.421875 251.515625 L 315.421875 214.664062 C 315.410156 213.058594 316.273438 211.582031 317.648438 210.78125 L 341.066406 197.269531 C 342.445312 196.46875 344.160156 196.46875 345.535156 197.269531 C 346.925781 198.070312 347.777344 199.546875 347.777344 201.152344 L 347.777344 269.785156 C 347.765625 272.714844 347.039062 275.59375 345.660156 278.175781 C 345.3125 279.867188 343.46875 281.855469 340.867188 283.898438 C 340.816406 283.949219 340.742188 283.996094 340.679688 284.046875 C 334.066406 289.195312 323.121094 294.503906 321.179688 295.632812 L 196.511719 367.609375 C 193.71875 369.210938 190.539062 370.039062 187.320312 370 L 187.183594 370 L 187.183594 369.988281 C 184.214844 369.914062 181.308594 369.085938 178.742188 367.609375 L 36.164062 285.289062 C 30.625 282.09375 27.210938 276.183594 27.210938 269.785156 L 27.210938 105.144531 C 27.210938 102.269531 27.574219 99.339844 28.835938 96.863281 C 29.011719 96.222656 30.738281 93.058594 34.296875 90.457031 C 35.640625 89.550781 38.011719 88.335938 40.234375 87.050781 L 178.34375 7.316406 C 181.121094 5.714844 184.289062 4.890625 187.496094 4.929688 C 190.714844 4.890625 193.871094 5.714844 196.648438 7.320312 L 324.085938 80.886719 C 324.375 81.0625 324.601562 81.273438 324.851562 81.476562 L 326.464844 82.402344 C 330.800781 84.699219 337.585938 88.199219 341.269531 90.996094 L 341.566406 91.222656 C 341.617188 91.257812 341.667969 91.296875 341.71875 91.328125 C 341.84375 91.4375 341.929688 91.542969 342.058594 91.65625 C 343.410156 92.789062 344.5625 94.117188 345.449219 95.601562 C 345.476562 95.621094 345.488281 95.648438 345.511719 95.671875 L 345.5 95.675781 C 346.992188 98.160156 347.777344 101.003906 347.777344 103.898438 L 347.777344 164.1875 C 347.777344 165.789062 346.929688 167.265625 345.539062 168.066406 L 322.121094 181.589844 C 320.742188 182.378906 319.027344 182.378906 317.652344 181.589844 C 316.261719 180.789062 315.410156 179.3125 315.410156 177.710938 L 315.410156 123.34375 C 315.410156 116.941406 311.992188 111.023438 306.445312 107.828125 L 196.25 44.417969 L 196.25 44.421875 Z M 196.246094 44.417969 " fill-opacity="1" fill-rule="nonzero"/></g></svg>